<?xml version="1.0" encoding="utf-8"?>
<!-- Generator: Adobe Illustrator 24.0.1, SVG Export Plug-In . SVG Version: 6.00 Build 0)  -->
<svg version="1.1" id="Calque_1" xmlns="http://www.w3.org/2000/svg" xmlns:xlink="http://www.w3.org/1999/xlink" x="0px" y="0px"
	 viewBox="0 0 841.89 595.28" style="enable-background:new 0 0 841.89 595.28;" xml:space="preserve">
<g>
	<circle cx="312.27" cy="288.8" r="13.53"/>
</g>
<g>
	<circle cx="425.11" cy="331.28" r="11.06"/>
</g>
<path d="M308.72,350.09l-40.55,15.06c-6.54,2.33-13.42-2.52-13.42-9.46V338.5c0-4.25,2.67-8.03,6.67-9.46l40.55-15.06
	c6.54-2.33,13.42,2.52,13.42,9.46v17.19C315.39,344.87,312.72,348.66,308.72,350.09z"/>
<g>
	<path d="M349.01,336.32l-15.33,5.34c-6.54,2.33-13.42-2.52-13.42-9.46v-17.19c0-4.25,2.67-8.03,6.67-9.46l15.33-5.34
		c6.54-2.33,13.42,2.52,13.42,9.46v17.19C355.68,331.1,353.01,334.89,349.01,336.32z"/>
</g>
<path d="M414.05,256.85c0-1.83,0.54-3.14,1.63-3.93c1.09-0.79,2.14-1.19,3.17-1.19h5.54c2.79,0,4.89,1.46,6.29,4.38
	c1.52,3.17,4.83,4.75,9.92,4.75l16.3,0.33c5.46,0,8.2-1.78,8.2-5.35c0-1.56-0.91-2.9-2.74-4.02c-1.83-1.13-4.25-2.05-7.26-2.79
	c-3.01-0.73-6.32-1.53-9.92-2.41c-3.61-0.88-7.23-1.75-10.87-2.63c-3.64-0.88-6.92-2.02-9.83-3.41c-2.92-1.39-5.28-3.3-7.09-5.73
	c-1.81-2.43-2.71-5.29-2.71-8.58c0-6.24,2.22-11.04,6.66-14.41c4.44-3.37,12.08-5.05,22.91-5.05l11.83,0.28
	c6.36,0,12.1,1.64,17.2,4.91c5.11,3.28,7.66,7.37,7.66,12.27c0,1.83-0.54,3.15-1.63,3.96c-1.09,0.81-2.13,1.21-3.12,1.21h-5.54
	c-2.79,0-4.89-1.47-6.29-4.42c-1.52-3.17-4.83-4.75-9.92-4.75l-14.01-0.28c-5.46,0-8.2,1.79-8.2,5.35c0,1.96,1.78,3.4,5.33,4.34
	c3.56,0.94,7.74,2.04,12.56,3.31c4.82,1.27,9.72,2.56,14.7,3.87c4.98,1.31,9.2,3.5,12.65,6.56c3.45,3.06,5.18,6.88,5.18,11.45
	c0,6.24-2.23,11.04-6.68,14.41c-4.46,3.37-12.08,5.05-22.89,5.05l-14.11-0.28c-6.36,0-12.11-1.64-17.23-4.91
	C416.62,265.85,414.05,261.76,414.05,256.85z"/>
<path d="M486.85,227.01c-0.25-0.81-0.39-1.47-0.42-2c0-1.36,0.78-2.06,2.33-2.1h8.66c1.46,0,2.76,0.37,3.91,1.09
	c1.15,0.73,1.94,1.73,2.38,3l7.64,25.1l7.54-25.1c0.84-2.73,2.61-4.1,5.31-4.1h8.24c2.73,0,4.5,1.37,5.31,4.1l7.54,25.1l7.64-25.1
	c0.43-1.27,1.22-2.27,2.37-3c1.15-0.73,2.45-1.09,3.91-1.09h8.65c1.52,0,2.3,0.7,2.33,2.09c0,0.56-0.14,1.22-0.42,2l-14.1,42.84
	c-0.43,1.27-1.21,2.28-2.33,3.01c-1.12,0.73-2.31,1.09-3.58,1.09h-6.56c-1.27,0-2.48-0.38-3.63-1.14c-1.15-0.76-1.91-1.75-2.28-2.96
	l-8.94-27.75l-8.99,27.75c-0.37,1.21-1.13,2.2-2.28,2.96c-1.15,0.76-2.36,1.14-3.63,1.14h-6.57c-1.27,0-2.47-0.36-3.59-1.09
	c-1.12-0.73-1.89-1.73-2.33-3L486.85,227.01z"/>
<path d="M576.86,253.92v-43.86c0-0.84,0.27-1.53,0.81-2.07c0.54-0.54,1.22-0.81,2.03-0.81h10.43c0.84,0,1.52,0.27,2.05,0.81
	c0.53,0.54,0.79,1.23,0.79,2.07v15.51h12.99c0.84,0,1.52,0.27,2.05,0.8c0.53,0.53,0.79,1.22,0.79,2.06v5.57
	c0,0.84-0.27,1.53-0.81,2.06c-0.54,0.53-1.22,0.8-2.03,0.8h-12.99v17.29c0,3.2,0.74,5.68,2.23,7.42c1.49,1.74,3.48,2.62,5.96,2.62
	c0.84,0,1.96-0.09,3.35-0.28c1.4-0.19,2.41-0.28,3.03-0.28h1.72c0.84,0,1.53,0.26,2.07,0.77c0.54,0.51,0.81,1.18,0.81,1.99v4.84
	c0,0.69-0.27,1.3-0.81,1.81c-0.54,0.51-1.23,0.83-2.07,0.95c-3.17,0.6-7.29,0.9-12.38,0.9C583.53,274.9,576.86,267.92,576.86,253.92
	z"/>
<path d="M461.05,354.54c-5.76-5.51-8.64-14.01-8.64-25.5c0-11.49,2.9-19.99,8.7-25.49c5.8-5.51,14.51-8.26,26.11-8.26h10.46
	c7.1,0,13.38,1.83,18.84,5.49c5.46,3.66,8.19,8.67,8.19,15.03c0,1.84-0.56,3.15-1.68,3.94c-1.12,0.79-2.21,1.19-3.27,1.19h-5.72
	c-2.95,0-5.24-1.71-6.88-5.12c-2.3-4.9-6.12-7.36-11.45-7.36h-8.29c-6.8,0-11.41,1.46-13.83,4.37c-2.42,2.92-3.63,8.31-3.63,16.19
	c0,7.88,1.21,13.28,3.63,16.21c2.42,2.93,7.03,4.4,13.83,4.4h9.27c5.34,0,9.14-2.45,11.41-7.35c1.58-3.42,3.82-5.13,6.7-5.13h5.54
	c0.56,0,1.16,0.12,1.79,0.35c0.64,0.23,1.29,0.77,1.95,1.62c0.67,0.85,1,1.9,1,3.17c0,6.38-2.7,11.39-8.1,15.04
	c-5.4,3.65-11.63,5.48-18.67,5.48h-11.36C475.45,362.8,466.81,360.04,461.05,354.54z"/>
<path d="M537.56,356.65c-4.83-4.47-7.24-11.06-7.24-19.77c0-8.71,2.41-15.29,7.24-19.74s11.79-6.68,20.88-6.68
	c9.09,0,16.06,2.23,20.9,6.68c4.84,4.45,7.26,11.04,7.26,19.74c0,8.71-2.42,15.3-7.26,19.77c-4.84,4.47-11.81,6.71-20.9,6.71
	C549.34,363.36,542.38,361.12,537.56,356.65z M549.32,324.8c-1.93,2.52-2.89,6.54-2.89,12.06c0,5.53,0.96,9.56,2.89,12.11
	c1.93,2.54,4.97,3.82,9.12,3.82s7.2-1.27,9.14-3.82c1.94-2.55,2.92-6.58,2.92-12.11c0-5.52-0.97-9.54-2.92-12.06
	c-1.94-2.51-4.99-3.77-9.14-3.77S551.24,322.29,549.32,324.8z"/>
<path d="M357.3,211.55l-80.84,28.83c-4,1.43-6.67,5.21-6.67,9.46v16.02c0,0-2,33.89,30.27,40.57c-5.22-3.62-8.8-9.5-9.21-16.33
	c-0.63-10.43,6.3-19.56,16.06-22.06l57.14-20.38c4-1.43,6.67-5.21,6.67-9.46v-17.19C370.72,214.07,363.85,209.22,357.3,211.55z"/>
</svg>
