<?xml version="1.0" encoding="utf-8"?>
<!-- Generator: Adobe Illustrator 24.0.1, SVG Export Plug-In . SVG Version: 6.00 Build 0)  -->
<svg version="1.1" id="Calque_1" xmlns="http://www.w3.org/2000/svg" xmlns:xlink="http://www.w3.org/1999/xlink" x="0px" y="0px"
	 viewBox="0 0 841.89 595.28" style="enable-background:new 0 0 841.89 595.28;" xml:space="preserve">
<g>
	<circle cx="420.38" cy="220.63" r="12.77"/>
</g>
<g>
	<circle cx="449.31" cy="368.78" r="9.13"/>
</g>
<path d="M417.03,278.45l-38.26,14.21c-6.17,2.2-12.66-2.37-12.66-8.93v-16.22c0-4.01,2.52-7.58,6.29-8.93l38.26-14.21
	c6.17-2.2,12.66,2.37,12.66,8.93v16.22C423.32,273.53,420.8,277.1,417.03,278.45z"/>
<g>
	<path d="M455.03,265.46l-14.46,5.03c-6.17,2.2-12.66-2.37-12.66-8.93v-16.22c0-4.01,2.52-7.58,6.29-8.93l14.46-5.03
		c6.17-2.2,12.66,2.37,12.66,8.93v16.22C461.33,260.54,458.81,264.11,455.03,265.46z"/>
</g>
<path d="M263.45,380.37c0-1.51,0.45-2.59,1.35-3.25c0.9-0.65,1.77-0.98,2.61-0.98h4.57c2.31,0,4.03,1.2,5.19,3.61
	c1.26,2.61,3.98,3.92,8.18,3.92l13.45,0.27c4.51,0,6.76-1.47,6.76-4.42c0-1.28-0.75-2.39-2.26-3.32c-1.51-0.93-3.5-1.69-5.99-2.3
	c-2.48-0.6-5.21-1.26-8.19-1.99c-2.98-0.72-5.97-1.45-8.97-2.17c-3-0.73-5.71-1.66-8.12-2.81c-2.41-1.15-4.36-2.72-5.85-4.73
	c-1.49-2.01-2.24-4.37-2.24-7.08c0-5.15,1.83-9.11,5.49-11.89c3.66-2.78,9.96-4.17,18.9-4.17l9.76,0.23c5.25,0,9.98,1.35,14.2,4.05
	c4.21,2.7,6.32,6.08,6.32,10.12c0,1.51-0.45,2.6-1.35,3.27c-0.9,0.67-1.75,1-2.57,1h-4.57c-2.3,0-4.03-1.22-5.19-3.65
	c-1.26-2.61-3.98-3.92-8.18-3.92l-11.56-0.23c-4.51,0-6.76,1.47-6.76,4.42c0,1.61,1.47,2.81,4.4,3.58
	c2.93,0.77,6.39,1.68,10.36,2.73s8.02,2.11,12.13,3.19c4.11,1.08,7.59,2.89,10.44,5.41c2.85,2.53,4.28,5.68,4.28,9.45
	c0,5.15-1.84,9.11-5.51,11.89c-3.68,2.78-9.97,4.17-18.89,4.17L284,394.55c-5.25,0-9.99-1.35-14.22-4.05
	C265.56,387.79,263.45,384.42,263.45,380.37z"/>
<path d="M323.52,355.74c-0.2-0.66-0.32-1.22-0.35-1.65c0-1.13,0.64-1.7,1.92-1.73h7.15c1.2,0,2.28,0.3,3.23,0.9
	c0.95,0.6,1.6,1.43,1.96,2.48l6.3,20.71l6.22-20.71c0.69-2.25,2.15-3.38,4.38-3.38h6.8c2.25,0,3.71,1.13,4.38,3.38l6.22,20.71
	l6.3-20.71c0.36-1.05,1.01-1.88,1.96-2.48c0.95-0.6,2.02-0.9,3.23-0.9h7.14c1.26,0,1.89,0.58,1.92,1.73c0,0.46-0.11,1.01-0.35,1.65
	l-11.64,35.35c-0.36,1.05-1,1.88-1.92,2.48c-0.92,0.6-1.91,0.9-2.95,0.9h-5.41c-1.05,0-2.05-0.31-3-0.94
	c-0.95-0.63-1.58-1.44-1.88-2.44l-7.38-22.9l-7.42,22.9c-0.31,1-0.93,1.81-1.88,2.44c-0.95,0.63-1.95,0.94-3,0.94h-5.42
	c-1.05,0-2.04-0.3-2.96-0.9c-0.92-0.6-1.56-1.43-1.92-2.48L323.52,355.74z"/>
<path d="M397.79,377.95v-36.19c0-0.69,0.22-1.26,0.67-1.71c0.45-0.45,1.01-0.67,1.67-0.67h8.61c0.69,0,1.26,0.22,1.69,0.67
	s0.65,1.02,0.65,1.71v12.8h10.72c0.69,0,1.25,0.22,1.69,0.66c0.44,0.44,0.65,1,0.65,1.7v4.59c0,0.69-0.23,1.26-0.67,1.7
	c-0.45,0.44-1.01,0.66-1.67,0.66h-10.72v14.27c0,2.64,0.61,4.69,1.84,6.12c1.23,1.44,2.87,2.16,4.92,2.16
	c0.69,0,1.61-0.08,2.77-0.23c1.15-0.15,1.99-0.23,2.5-0.23h1.42c0.69,0,1.26,0.21,1.71,0.64c0.45,0.42,0.67,0.97,0.67,1.64v4
	c0,0.57-0.22,1.07-0.67,1.49c-0.45,0.42-1.02,0.69-1.71,0.79c-2.61,0.5-6.02,0.75-10.22,0.75
	C403.3,395.27,397.79,389.5,397.79,377.95z"/>
<path d="M478.97,387.96c-4.75-4.55-7.13-11.56-7.13-21.04c0-9.48,2.39-16.49,7.18-21.04c4.79-4.54,11.97-6.82,21.55-6.82h8.64
	c5.86,0,11.04,1.51,15.55,4.53c4.5,3.02,6.76,7.16,6.76,12.41c0,1.51-0.46,2.6-1.39,3.25c-0.93,0.65-1.83,0.98-2.7,0.98h-4.72
	c-2.43,0-4.33-1.41-5.68-4.23c-1.9-4.05-5.05-6.07-9.45-6.07h-6.84c-5.61,0-9.41,1.2-11.41,3.61c-2,2.41-3,6.86-3,13.36
	c0,6.5,1,10.96,3,13.38c2,2.42,5.8,3.63,11.41,3.63h7.65c4.41,0,7.54-2.02,9.41-6.06c1.31-2.82,3.15-4.23,5.53-4.23h4.57
	c0.46,0,0.95,0.09,1.48,0.29c0.52,0.19,1.06,0.64,1.61,1.33c0.55,0.7,0.83,1.57,0.83,2.61c0,5.26-2.23,9.4-6.69,12.41
	c-4.46,3.02-9.59,4.52-15.41,4.52h-9.37C490.85,394.78,483.72,392.51,478.97,387.96z"/>
<path d="M542.1,389.71c-3.98-3.69-5.98-9.12-5.98-16.31c0-7.18,1.99-12.62,5.98-16.29c3.98-3.68,9.73-5.51,17.23-5.51
	c7.5,0,13.25,1.84,17.25,5.51c4,3.68,5.99,9.11,5.99,16.29c0,7.19-2,12.62-5.99,16.31c-4,3.69-9.75,5.53-17.25,5.53
	C551.83,395.24,546.08,393.4,542.1,389.71z M551.8,363.43c-1.59,2.08-2.39,5.39-2.39,9.95c0,4.56,0.79,7.89,2.39,9.99
	c1.59,2.1,4.1,3.15,7.53,3.15c3.43,0,5.94-1.05,7.55-3.15c1.6-2.1,2.41-5.43,2.41-9.99c0-4.56-0.8-7.88-2.41-9.95
	c-1.6-2.07-4.12-3.11-7.55-3.11C555.9,360.31,553.39,361.35,551.8,363.43z"/>
<path d="M462.86,147.75l-76.26,27.2c-3.77,1.35-6.29,4.92-6.29,8.93v15.11c0,0-1.89,31.98,28.56,38.28
	c-4.92-3.41-8.3-8.96-8.69-15.4c-0.6-9.84,5.94-18.45,15.15-20.81l53.91-19.22c3.77-1.35,6.29-4.92,6.29-8.93v-16.22
	C475.52,150.12,469.03,145.55,462.86,147.75z"/>
</svg>
