<?xml version="1.0" encoding="utf-8"?>
<!-- Generator: Adobe Illustrator 24.0.1, SVG Export Plug-In . SVG Version: 6.00 Build 0)  -->
<svg version="1.1" id="Calque_1" xmlns="http://www.w3.org/2000/svg" xmlns:xlink="http://www.w3.org/1999/xlink" x="0px" y="0px"
	 viewBox="0 0 841.89 595.28" style="enable-background:new 0 0 841.89 595.28;" xml:space="preserve">
<style type="text/css">
	.st0{fill:#FFFFFF;}
</style>
<g>
	<circle cx="420.84" cy="296.86" r="123.58"/>
</g>
<g>
	<g>
		<circle class="st0" cx="420.41" cy="297.28" r="12.64"/>
	</g>
	<path class="st0" d="M417.09,354.51l-37.87,14.06c-6.11,2.18-12.53-2.35-12.53-8.83v-16.05c0-3.97,2.49-7.5,6.23-8.83l37.87-14.06
		c6.11-2.18,12.53,2.35,12.53,8.83v16.05C423.32,349.64,420.83,353.18,417.09,354.51z"/>
	<g>
		<path class="st0" d="M454.71,341.65l-14.31,4.98c-6.11,2.18-12.53-2.35-12.53-8.83v-16.05c0-3.97,2.49-7.5,6.23-8.83l14.31-4.98
			c6.11-2.18,12.53,2.35,12.53,8.83v16.05C460.94,336.79,458.45,340.32,454.71,341.65z"/>
	</g>
	<path class="st0" d="M462.46,225.14l-75.49,26.92c-3.73,1.33-6.23,4.87-6.23,8.83v14.96c0,0-1.87,31.65,28.27,37.89
		c-4.87-3.38-8.21-8.87-8.6-15.25c-0.59-9.74,5.88-18.26,14.99-20.6l53.36-19.03c3.73-1.33,6.23-4.87,6.23-8.83v-16.05
		C474.99,227.49,468.57,222.97,462.46,225.14z"/>
</g>
</svg>
